#!OML:ASF F:\VICON\USERDATA\INSTALL\rory3\rory3.ASF
:FULLY-SPECIFIED
:DEGREES
92
root 1.19248 18.1986 -10.7573 -2.45594 -3.08201 -0.542541
lowerback 9.55482 1.61417 0.981982
upperback -0.243835 2.30113 0.730833
thorax -5.60818 1.11537 -0.116662
lowerneck -16.6064 -3.02718 -1.85662
upperneck 21.3421 -3.79916 0.320603
head 9.52868 -1.8823 -0.0741161
rclavicle 2.88455e-014 1.94809e-014
rhumerus -29.9152 -18.217 -79.1384
rradius 24.6366
rwrist 6.36606
rhand -17.2306 21.1795
rfingers 7.12502
rthumb 9.01281 -8.60797
lclavicle 2.88455e-014 1.94809e-014
lhumerus -37.034 7.0286 81.1226
lradius 20.3932
lwrist 1.42294
lhand -26.5342 20.2347
lfingers 7.12502
lthumb 0.0297787 50.2144
rfemur -5.37374 4.09266 23.5457
rtibia 64.3283
rfoot 8.4083 -4.04712
rtoes 7.21072
lfemur -13.0715 -2.40629 -22.4243
ltibia 19.7583
lfoot -2.55661 -1.95193
ltoes -0.687968
93
root 1.19878 18.2087 -10.5844 -2.45889 -2.92543 -0.366741
lowerback 9.54565 1.58488 0.895804
upperback -0.0850989 2.24343 0.615438
thorax -5.43517 1.08925 -0.177327
lowerneck -17.1674 -3.09549 -1.83854
upperneck 21.4585 -3.91884 0.441524
head 9.67744 -1.91893 -0.0614395
rclavicle 2.09407e-014 1.05356e-014
rhumerus -29.6816 -19.0082 -79.0493
rradius 24.1577
rwrist 7.29935
rhand -17.1165 22.8801
rfingers 7.12502
rthumb 9.12295 -6.90255
lclavicle 2.09407e-014 1.05356e-014
lhumerus -36.3322 6.74033 81.1169
lradius 20.6571
lwrist 1.72253
lhand -26.7819 20.5735
lfingers 7.12502
lthumb -0.209405 50.5531
rfemur -6.80993 3.92773 23.2999
rtibia 65.7352
rfoot 6.92395 -5.18116
rtoes 6.9908
lfemur -12.5935 -2.88172 -22.6948
ltibia 19.8224
lfoot -2.76852 -1.45864
ltoes 0.660256
94
root 1.20385 18.2158 -10.4136 -2.5607 -2.68211 -0.254252
lowerback 9.84343 1.61421 0.984649
upperback 0.159198 2.27935 0.36941
thorax -5.33231 1.10238 -0.493354
lowerneck -18.4271 -3.20059 -1.34648
upperneck 21.7759 -4.1796 0.399054
head 10.0147 -1.99447 -0.217631
rclavicle 2.88859e-015 8.15017e-015
rhumerus -29.3112 -20.3246 -79.0743
rradius 23.6791
rwrist 8.18344
rhand -17.3041 22.766
rfingers 7.12502
rthumb 8.94192 -7.02447
lclavicle 2.88859e-015 8.15017e-015
lhumerus -35.3771 5.80045 81.1903
lradius 21.0178
lwrist 1.99887
lhand -27.0009 21.3165
lfingers 7.12502
lthumb -0.420971 51.2958
rfemur -8.1591 3.61172 23.1228
rtibia 66.9553
rfoot 5.50854 -6.18163
rtoes 5.84241
lfemur -11.97 -3.00109 -22.9131
ltibia 19.8882
lfoot -3.29144 -1.40763
ltoes 1.98538
95
root 1.20471 18.2117 -10.2503 -2.67388 -2.55775 -0.197223
lowerback 9.60594 1.47911 0.66906
upperback -0.00650507 2.07577 0.59131
thorax -5.3949 1.01275 -0.0521435
lowerneck -16.4982 -3.07166 -1.48731
upperneck 21.0706 -3.93249 0.208013
head 9.40386 -1.92868 -0.186647
rclavicle -9.27455e-015 -2.52457e-014
rhumerus -29.9789 -20.268 -78.5371
rradius 23.299
rwrist 8.81688
rhand -17.2613 21.4822
rfingers 7.12502
rthumb 8.98325 -8.30652
lclavicle -9.27455e-015 -2.52457e-014
lhumerus -35.894 5.76081 81.3546
lradius 21.4648
lwrist 2.36364
lhand -27.2143 19.9918
lfingers 7.12502
lthumb -0.627102 49.9706
rfemur -9.45763 3.44782 23.0278
rtibia 68.0025
rfoot 3.90878 -7.13885
rtoes 6.07909
lfemur -11.3334 -2.88831 -23.0573
ltibia 20.0204
lfoot -3.97308 -1.39618
ltoes 2.46365
